<svg width="78" height="78" viewBox="0 0 78 78" fill="none" xmlns="http://www.w3.org/2000/svg">
<g clip-path="url(#clip0_152_2476)">
<path d="M1.26349 76.2147C2.97248 77.8748 5.80451 77.8748 7.46467 76.2147L38.7147 44.9647L69.9647 76.2147C71.6248 77.8748 74.5057 77.9237 76.1658 76.2147C77.826 74.5057 77.826 71.7225 76.1658 70.0623L44.9158 38.7635L76.1658 7.51349C77.826 5.85334 77.8748 3.02131 76.1658 1.36115C74.4569 -0.347836 71.6248 -0.347836 69.9647 1.36115L38.7147 32.6112L7.46467 1.36115C5.80451 -0.347836 2.92365 -0.396664 1.26349 1.36115C-0.396661 3.07013 -0.396661 5.85334 1.26349 7.51349L32.5135 38.7635L1.26349 70.0623C-0.396661 71.7225 -0.445489 74.5545 1.26349 76.2147Z" fill="#F5F4F0"/>
</g>
<defs>
<clipPath id="clip0_152_2476">
<rect width="77.4293" height="77.4782" fill="white"/>
</clipPath>
</defs>
</svg>
