<svg width="150" height="150" viewBox="0 0 150 150" fill="none" xmlns="http://www.w3.org/2000/svg">
<path d="M66.3409 2.04L112.374 30.3757C116.65 33.0421 119.148 37.6749 119.148 42.9134V77.2135C115.845 77.2218 112.64 77.6953 109.599 78.6135V49.1207L64.3419 76.5731V130.039C64.9222 129.675 64.9864 129.648 65.617 129.271L81.1633 119.665C81.2557 123.405 81.8695 127.007 82.9052 130.414L66.3409 140.62C62.002 143.34 57.1455 143.34 52.8067 140.62L6.76068 112.257C2.49747 109.59 0 104.958 0 99.7191V42.9134C0 37.6749 2.49747 33.0421 6.76068 30.3757L52.8067 2.04C57.1455 -0.680001 62.002 -0.680001 66.3409 2.04ZM9.54912 97.8803C9.54912 100.493 10.8486 102.891 13.0057 104.279L53.8324 129.473C54.337 129.783 54.414 129.81 54.8058 130.039V76.5731L9.54912 49.1207V97.8803ZM56.1105 11.8297L13.4462 38.1524C12.9777 38.4498 12.7994 38.5731 12.5336 38.9253L59.5674 67.5485L106.614 38.9253C106.348 38.5731 106.17 38.4498 105.701 38.1524L63.0368 11.8297C60.8668 10.4423 58.2679 10.4423 56.1105 11.8297Z" fill="#F5F4F0"/>
<path d="M121.495 122.203C121.495 123.393 120.621 124.335 119.499 124.335C118.403 124.335 117.522 123.393 117.522 122.203C117.522 120.867 118.467 120.129 119.463 120.109C120.495 120.09 121.495 120.817 121.495 122.203Z" fill="#F5F4F0"/>
<path fill-rule="evenodd" clip-rule="evenodd" d="M134.771 111.92C134.771 117.063 126.085 116.709 126.085 121.542C126.085 124.358 128.505 124.998 128.505 127.05C128.505 128.99 125.457 130.269 120.858 130.269C110.964 130.269 104.433 125.237 104.433 117.685C104.433 109.838 111.397 104.619 121.976 104.619C129.689 104.619 134.771 107.561 134.771 111.92ZM115.214 122.211C115.214 124.745 117.144 126.808 119.499 126.808C121.964 126.808 123.799 124.836 123.799 122.211C123.799 119.696 121.879 117.625 119.499 117.625C117.144 117.625 115.214 119.696 115.214 122.211ZM106.931 117.131C106.931 118.586 108.047 119.796 109.408 119.796C110.767 119.796 111.864 118.586 111.864 117.131C111.864 115.676 110.769 114.507 109.408 114.507C108.046 114.507 106.931 115.677 106.931 117.131ZM111.584 111.577C111.584 113.405 112.951 114.823 114.645 114.823C116.31 114.823 117.673 113.405 117.673 111.577C117.673 109.782 116.309 108.372 114.645 108.372C112.951 108.372 111.584 109.781 111.584 111.577ZM126.44 111.2C126.44 112.41 127.358 113.37 128.485 113.37C129.598 113.37 130.495 112.411 130.495 111.2C130.495 110.009 129.597 109.029 128.485 109.029C127.359 109.029 126.44 110.009 126.44 111.2ZM119.435 109.734C119.435 111.194 120.564 112.38 121.932 112.38C123.299 112.38 124.408 111.195 124.408 109.734C124.408 108.265 123.299 107.088 121.932 107.088C120.564 107.088 119.435 108.266 119.435 109.734Z" fill="#F5F4F0"/>
<path fill-rule="evenodd" clip-rule="evenodd" d="M150 117.545C150 135.431 136.361 150 119.586 150C102.843 150 89.2046 135.431 89.2046 117.545C89.2046 99.6587 102.843 85.0896 119.586 85.0896C136.361 85.0896 150 99.6587 150 117.545ZM100.378 117.685C100.378 127.819 108.628 134.602 120.858 134.602C127.912 134.602 132.622 131.89 132.622 127.839C132.622 124.436 130.163 123.762 130.163 121.857C130.163 119.289 138.826 118.901 138.826 111.92C138.826 104.923 132.058 100.286 121.976 100.286C109.061 100.286 100.378 107.421 100.378 117.685Z" fill="#F5F4F0"/>
</svg>
