<svg width="121" height="114" viewBox="0 0 121 114" fill="none" xmlns="http://www.w3.org/2000/svg">
<g clip-path="url(#clip0_152_2464)">
<path d="M11.2045 109.453C15.5502 113.798 20.6284 113.457 25.0229 108.427L71.4584 55.5465L57.103 41.191L4.07565 87.4801C-1.00248 91.9234 -1.29544 96.9527 3.05026 101.347L11.2045 109.453ZM98.0209 67.4117C100.121 69.4137 102.513 69.5601 104.515 67.5582L119.212 52.9586C121.117 51.0543 120.97 48.5152 118.919 46.5133L115.404 42.9488C113.499 41.0934 112.279 40.8004 110.228 40.9469L104.515 41.6305L100.853 37.9684L102.513 31.0836C103.343 27.7144 102.074 24.15 98.5092 20.5855L88.6948 10.8687C75.1205 -2.65664 50.1205 -4.17031 36.1069 9.79453C33.7631 12.1383 34.2026 14.775 35.7162 16.4351C36.8881 17.5582 38.6948 18.1441 40.4037 17.607C49.8764 14.775 58.1284 14.2379 65.2573 18.4859L61.4975 28.3492C59.8862 32.4996 60.7651 35.4293 63.4018 38.1148L74.2905 49.0035C76.2924 51.0055 78.392 51.5914 81.5659 50.9566L89.4272 49.3453L93.0405 53.0074L92.5034 58.7203C92.3569 60.8687 92.5522 62.1383 94.5053 63.9449L98.0209 67.4117Z" fill="#F5F4F0"/>
</g>
<defs>
<clipPath id="clip0_152_2464">
<rect width="120.554" height="113.29" fill="white"/>
</clipPath>
</defs>
</svg>
