<svg width="85" height="87" viewBox="0 0 85 87" fill="none" xmlns="http://www.w3.org/2000/svg">
<g clip-path="url(#clip0_152_2485)">
<path d="M31.8359 86.1816C33.9355 86.1816 35.5957 85.2539 36.7676 83.4473L82.9102 10.791C83.7891 9.375 84.1309 8.30077 84.1309 7.17772C84.1309 4.49218 82.373 2.73438 79.6875 2.73438C77.7344 2.73438 76.6602 3.36913 75.4883 5.2246L31.6406 75.0977L8.88672 45.3125C7.66602 43.6035 6.44531 42.9199 4.6875 42.9199C1.9043 42.9199 0 44.8242 0 47.5098C0 48.6328 0.488281 49.9023 1.41602 51.0742L26.7578 83.3496C28.2227 85.2539 29.7363 86.1816 31.8359 86.1816Z" fill="#F5F4F0"/>
</g>
<defs>
<clipPath id="clip0_152_2485">
<rect width="84.1309" height="86.1816" fill="white"/>
</clipPath>
</defs>
</svg>
