<svg width="117" height="90" viewBox="0 0 117 90" fill="none" xmlns="http://www.w3.org/2000/svg">
<g clip-path="url(#clip0_158_2219)">
<path d="M98.584 75.4395C97.168 84.9121 93.3105 89.9902 83.6914 89.9902H32.4219C22.8516 89.9902 18.9941 84.9609 17.5781 75.4395L10.5957 28.9551H105.518L98.584 75.4395ZM70.0684 40.5762L58.0566 52.4902L46.1426 40.625C45.3125 39.9414 44.5312 39.4531 43.5059 39.4531C41.3574 39.4531 39.5508 41.1621 39.5508 43.2617C39.5508 44.3848 40.0879 45.2637 40.7715 45.9473L52.5879 57.9102L40.7715 69.8242C40.0879 70.5078 39.5508 71.3867 39.5508 72.5098C39.5508 74.6094 41.3574 76.4648 43.5059 76.4648C44.5312 76.4648 45.459 75.9277 46.1914 75.2441L58.0566 63.3301L69.9707 75.2441C70.7031 75.8789 71.582 76.4648 72.7051 76.4648C74.8047 76.4648 76.6113 74.6094 76.6113 72.5098C76.6113 71.3379 76.0742 70.5078 75.3906 69.7754L63.5742 57.9102L75.4395 45.8984C76.1719 45.0684 76.6602 44.3359 76.6602 43.2617C76.6602 41.1133 74.9023 39.3555 72.7051 39.3555C71.7285 39.3555 70.8984 39.8438 70.0684 40.5762ZM116.162 8.83789V13.5742C116.162 19.043 113.379 22.3145 107.861 22.3145H8.30078C2.7832 22.3145 0 19.043 0 13.5742V8.83789C0 3.36914 3.07617 0.0976562 8.30078 0.0976562H107.861C113.379 0.0976562 116.162 3.36914 116.162 8.83789Z" fill="#F5F4F0"/>
</g>
<defs>
<clipPath id="clip0_158_2219">
<rect width="116.162" height="89.9902" fill="white"/>
</clipPath>
</defs>
</svg>
