<svg width="93" height="101" viewBox="0 0 93 101" fill="none" xmlns="http://www.w3.org/2000/svg">
<g clip-path="url(#clip0_158_2190)">
<path d="M0 69.7754C0 88.4766 12.2559 100.928 34.1309 100.928H45.4102C48.0957 100.928 49.8535 98.9746 49.8535 96.582C49.8535 94.1895 48.0957 92.2363 45.4102 92.2363H34.1797C17.5293 92.2363 8.69141 82.4707 8.69141 69.2871C8.69141 56.1523 17.5293 46.9727 34.1797 46.9727H67.6758L82.8613 46.2891L81.9824 44.043L69.873 54.3945L55.8105 68.1152C55.0293 68.8965 54.6387 69.8242 54.6387 71.0938C54.6387 73.6328 56.3477 75.3906 58.9355 75.3906C60.0098 75.3906 61.2793 74.9023 62.1094 74.0234L90.8203 45.8496C91.7969 44.9219 92.2852 43.7988 92.2852 42.627C92.2852 41.4062 91.7969 40.2832 90.8203 39.3555L62.1094 11.1816C61.2793 10.3516 60.0098 9.81445 58.9355 9.81445C56.3477 9.81445 54.6387 11.5723 54.6387 14.1113C54.6387 15.3809 55.0293 16.3086 55.8105 17.0898L69.873 30.8594L81.9824 41.1621L82.8613 38.916L67.6758 38.2324H34.9121C12.5977 38.2324 0 51.123 0 69.7754Z" fill="#081B6A"/>
</g>
<defs>
<clipPath id="clip0_158_2190">
<rect width="92.2852" height="100.928" fill="white"/>
</clipPath>
</defs>
</svg>
