<svg width="96" height="94" viewBox="0 0 96 94" fill="none" xmlns="http://www.w3.org/2000/svg">
<g clip-path="url(#clip0_196_2262)">
<path d="M76.5137 93.7988H87.3047C92.627 93.7988 95.752 90.6738 95.752 85.1562V74.7559C95.752 69.2383 92.627 66.1133 87.3047 66.1133H76.5137C71.1914 66.1133 68.0664 69.2383 68.0664 74.7559V85.1562C68.0664 90.6738 71.1914 93.7988 76.5137 93.7988ZM77.4414 87.0605C75.6836 87.0605 74.7559 86.1328 74.7559 84.3262V75.5859C74.7559 73.7305 75.6836 72.8027 77.4414 72.8027H86.377C88.0859 72.8027 89.0137 73.7305 89.0137 75.5859V84.3262C89.0137 86.1328 88.0859 87.0605 86.377 87.0605H77.4414Z" fill="#F5F4F0"/>
<path d="M42.4316 93.7988H53.2715C58.5938 93.7988 61.6699 90.6738 61.6699 85.1562V74.7559C61.6699 69.2383 58.5938 66.1133 53.2715 66.1133H42.4316C37.1094 66.1133 34.0332 69.2383 34.0332 74.7559V85.1562C34.0332 90.6738 37.1094 93.7988 42.4316 93.7988ZM43.3594 87.0605C41.6016 87.0605 40.7227 86.1328 40.7227 84.3262V75.5859C40.7227 73.7305 41.6016 72.8027 43.3594 72.8027H52.3438C54.0527 72.8027 54.9805 73.7305 54.9805 75.5859V84.3262C54.9805 86.1328 54.0527 87.0605 52.3438 87.0605H43.3594Z" fill="#F5F4F0"/>
<path d="M8.44727 93.7988H19.2383C24.5605 93.7988 27.6855 90.6738 27.6855 85.1562V74.7559C27.6855 69.2383 24.5605 66.1133 19.2383 66.1133H8.44727C3.125 66.1133 0 69.2383 0 74.7559V85.1562C0 90.6738 3.125 93.7988 8.44727 93.7988ZM9.375 87.0605C7.61719 87.0605 6.73828 86.1328 6.73828 84.3262V75.5859C6.73828 73.7305 7.61719 72.8027 9.375 72.8027H18.3105C20.0195 72.8027 20.9961 73.7305 20.9961 75.5859V84.3262C20.9961 86.1328 20.0195 87.0605 18.3105 87.0605H9.375Z" fill="#F5F4F0"/>
<path d="M76.5137 60.7422H87.3047C92.627 60.7422 95.752 57.666 95.752 52.1484V41.6992C95.752 36.1816 92.627 33.0566 87.3047 33.0566H76.5137C71.1914 33.0566 68.0664 36.1816 68.0664 41.6992V52.1484C68.0664 57.666 71.1914 60.7422 76.5137 60.7422ZM77.4414 54.0527C75.6836 54.0527 74.7559 53.125 74.7559 51.2695V42.4805C74.7559 40.6738 75.6836 39.7461 77.4414 39.7461H86.377C88.0859 39.7461 89.0137 40.6738 89.0137 42.4805V51.2695C89.0137 53.125 88.0859 54.0527 86.377 54.0527H77.4414Z" fill="#F5F4F0"/>
<path d="M42.4316 60.7422H53.2715C58.5938 60.7422 61.6699 57.666 61.6699 52.1484V41.6992C61.6699 36.1816 58.5938 33.0566 53.2715 33.0566H42.4316C37.1094 33.0566 34.0332 36.1816 34.0332 41.6992V52.1484C34.0332 57.666 37.1094 60.7422 42.4316 60.7422ZM43.3594 54.0527C41.6016 54.0527 40.7227 53.125 40.7227 51.2695V42.4805C40.7227 40.6738 41.6016 39.7461 43.3594 39.7461H52.3438C54.0527 39.7461 54.9805 40.6738 54.9805 42.4805V51.2695C54.9805 53.125 54.0527 54.0527 52.3438 54.0527H43.3594Z" fill="#F5F4F0"/>
<path d="M8.44727 60.7422H19.2383C24.5605 60.7422 27.6855 57.666 27.6855 52.1484V41.6992C27.6855 36.1816 24.5605 33.0566 19.2383 33.0566H8.44727C3.125 33.0566 0 36.1816 0 41.6992V52.1484C0 57.666 3.125 60.7422 8.44727 60.7422ZM9.375 54.0527C7.61719 54.0527 6.73828 53.125 6.73828 51.2695V42.4805C6.73828 40.6738 7.61719 39.7461 9.375 39.7461H18.3105C20.0195 39.7461 20.9961 40.6738 20.9961 42.4805V51.2695C20.9961 53.125 20.0195 54.0527 18.3105 54.0527H9.375Z" fill="#F5F4F0"/>
<path d="M76.5137 27.6855H87.3047C92.627 27.6855 95.752 24.5605 95.752 19.043V8.64258C95.752 3.125 92.627 0 87.3047 0H76.5137C71.1914 0 68.0664 3.125 68.0664 8.64258V19.043C68.0664 24.5605 71.1914 27.6855 76.5137 27.6855ZM77.4414 20.9961C75.6836 20.9961 74.7559 20.0684 74.7559 18.2129V9.47266C74.7559 7.66602 75.6836 6.73828 77.4414 6.73828H86.377C88.0859 6.73828 89.0137 7.66602 89.0137 9.47266V18.2129C89.0137 20.0684 88.0859 20.9961 86.377 20.9961H77.4414Z" fill="#F5F4F0"/>
<path d="M42.4316 27.6855H53.2715C58.5938 27.6855 61.6699 24.5605 61.6699 19.043V8.64258C61.6699 3.125 58.5938 0 53.2715 0H42.4316C37.1094 0 34.0332 3.125 34.0332 8.64258V19.043C34.0332 24.5605 37.1094 27.6855 42.4316 27.6855ZM43.3594 20.9961C41.6016 20.9961 40.7227 20.0684 40.7227 18.2129V9.47266C40.7227 7.66602 41.6016 6.73828 43.3594 6.73828H52.3438C54.0527 6.73828 54.9805 7.66602 54.9805 9.47266V18.2129C54.9805 20.0684 54.0527 20.9961 52.3438 20.9961H43.3594Z" fill="#F5F4F0"/>
<path d="M8.44727 27.6855H19.2383C24.5605 27.6855 27.6855 24.5605 27.6855 19.043V8.64258C27.6855 3.125 24.5605 0 19.2383 0H8.44727C3.125 0 0 3.125 0 8.64258V19.043C0 24.5605 3.125 27.6855 8.44727 27.6855ZM9.375 20.9961C7.61719 20.9961 6.73828 20.0684 6.73828 18.2129V9.47266C6.73828 7.66602 7.61719 6.73828 9.375 6.73828H18.3105C20.0195 6.73828 20.9961 7.66602 20.9961 9.47266V18.2129C20.9961 20.0684 20.0195 20.9961 18.3105 20.9961H9.375Z" fill="#F5F4F0"/>
</g>
<defs>
<clipPath id="clip0_196_2262">
<rect width="95.752" height="93.9941" fill="white"/>
</clipPath>
</defs>
</svg>
