<svg width="117" height="118" viewBox="0 0 117 118" fill="none" xmlns="http://www.w3.org/2000/svg">
<g clip-path="url(#clip0_158_2209)">
<path d="M91.8642 86.719L97.0399 86.9631C98.6513 87.0119 100.311 88.0862 101.19 89.6975L110.028 105.957C110.858 107.52 111.054 108.692 110.126 109.619L104.413 115.332C103.436 116.309 102.265 116.065 100.8 115.332L84.4423 106.397C82.7821 105.567 81.7567 103.858 81.7079 102.344L81.4638 97.1682L59.6106 75.315C62.2869 71.9229 65.4375 68.2003 69.1937 64.0921L91.8642 86.719ZM32.3915 10.4006L61.5225 39.5729C61.8074 40.3921 62.1437 41.1984 62.5185 41.9924C50.3705 53.9759 41.0998 61.2438 33.7 66.193L5.14541 37.5979C-1.69053 30.7619 -1.69053 23.4377 4.99893 16.7483L11.4931 10.2541C18.1825 3.56467 25.5067 3.56467 32.3915 10.4006ZM14.9599 26.6115C14.2274 27.4416 14.1786 28.6623 14.9599 29.4436L34.3446 48.7307C35.1259 49.5119 36.3954 49.5119 37.1278 48.7307C37.8603 47.9983 37.9091 46.8264 37.1278 46.0451L17.6942 26.6115C17.0106 25.9768 15.7411 25.8791 14.9599 26.6115ZM21.4052 20.2639C20.6239 21.0451 20.6728 22.217 21.4052 22.9494L40.7411 42.4319C41.4735 43.2131 42.8407 43.1154 43.4755 42.4319C44.2567 41.5529 44.2567 40.3322 43.5243 39.5998L24.1396 20.2639C23.3583 19.4826 22.0888 19.5315 21.4052 20.2639Z" fill="#F5F4F0"/>
<path d="M7.63571 111.084C16.1318 119.483 27.5088 119.58 35.8584 111.182C46.3564 100.586 44.6963 88.6721 76.7275 56.1526C87.1768 61.0842 99.8232 59.424 108.222 51.0744C117.011 42.2854 118.524 28.4182 111.981 17.1877L98.7002 30.469C97.3818 31.7873 95.7217 31.885 94.3057 30.469L88.3486 24.4631C86.9326 22.9983 86.7861 21.2893 88.1045 19.9709L101.434 6.73848C90.3018 0.244349 76.4834 1.70919 67.6943 10.5471C59.2959 18.9455 57.5869 31.5432 62.5186 41.9924C30.0479 74.0237 18.1338 72.3635 7.53805 82.8127C-0.909212 91.1623 -0.811557 102.588 7.63571 111.084ZM72.9678 45.7522C64.2764 37.0608 63.9346 23.2912 72.2354 15.0881C76.9229 10.3518 83.6123 8.44747 90.0088 9.47286L82.9287 16.5529C79.3154 20.1174 79.4131 24.7072 83.1729 28.3694L90.3994 35.5471C94.0127 39.1604 98.6514 39.258 102.069 35.7912L109.247 28.5647C110.321 35.0588 108.368 41.7483 103.632 46.5334C95.3799 54.7854 81.708 54.3947 72.9678 45.7522ZM12.4697 106.25C6.85446 100.537 6.95211 93.2619 12.3232 87.842C24.1397 76.1233 31.1709 81.1037 65.79 47.2658C66.5713 48.3401 67.4502 49.3166 68.3779 50.2932C69.3057 51.2209 70.3311 52.1487 71.4053 52.9299C37.6162 87.549 42.5967 94.5803 30.8779 106.299C25.458 111.768 18.1338 111.817 12.4697 106.25ZM21.5518 103.321C24.8721 103.321 27.6064 100.586 27.6064 97.2658C27.6064 93.9455 24.8721 91.26 21.5518 91.26C18.2314 91.26 15.5459 93.9455 15.5459 97.2658C15.5459 100.586 18.2314 103.321 21.5518 103.321Z" fill="#F5F4F0"/>
</g>
<defs>
<clipPath id="clip0_158_2209">
<rect width="116.053" height="117.432" fill="white"/>
</clipPath>
</defs>
</svg>
