<svg width="92" height="91" viewBox="0 0 92 91" fill="none" xmlns="http://www.w3.org/2000/svg">
<g clip-path="url(#clip0_230_3470)">
<path d="M81.8359 54.5059C86.9629 54.5059 91.1133 50.4043 91.1133 45.2773C91.1133 40.1504 86.9629 36 81.8359 36C76.709 36 72.5586 40.1504 72.5586 45.2773C72.5586 50.4043 76.709 54.5059 81.8359 54.5059Z" fill="#F5F4F0"/>
<path d="M45.5566 54.5059C50.6836 54.5059 54.7852 50.4043 54.7852 45.2773C54.7852 40.1504 50.6836 36 45.5566 36C40.4297 36 36.2793 40.1504 36.2793 45.2773C36.2793 50.4043 40.4297 54.5059 45.5566 54.5059Z" fill="#F5F4F0"/>
<path d="M9.27734 54.5059C14.4043 54.5059 18.5059 50.4043 18.5059 45.2773C18.5059 40.1504 14.4043 36 9.27734 36C4.15039 36 0 40.1504 0 45.2773C0 50.4043 4.15039 54.5059 9.27734 54.5059Z" fill="#F5F4F0"/>
</g>
<defs>
<clipPath id="clip0_230_3470">
<rect width="91.1133" height="18.6035" fill="white" transform="translate(0 36)"/>
</clipPath>
</defs>
</svg>
